G04 #@! TF.GenerationSoftware,KiCad,Pcbnew,5.0.2+dfsg1-1~bpo9+1*
G04 #@! TF.CreationDate,2020-10-06T20:20:49+01:00*
G04 #@! TF.ProjectId,tiny_usb_charger,74696e79-5f75-4736-925f-636861726765,rev?*
G04 #@! TF.SameCoordinates,Original*
G04 #@! TF.FileFunction,Copper,L1,Top*
G04 #@! TF.FilePolarity,Positive*
%FSLAX46Y46*%
G04 Gerber Fmt 4.6, Leading zero omitted, Abs format (unit mm)*
G04 Created by KiCad (PCBNEW 5.0.2+dfsg1-1~bpo9+1) date Tue 06 Oct 2020 20:20:49 BST*
%MOMM*%
%LPD*%
G01*
G04 APERTURE LIST*
G04 #@! TA.AperFunction,SMDPad,CuDef*
%ADD10R,0.650000X1.700000*%
G04 #@! TD*
G04 #@! TA.AperFunction,Conductor*
%ADD11C,0.100000*%
G04 #@! TD*
G04 #@! TA.AperFunction,SMDPad,CuDef*
%ADD12C,1.600000*%
G04 #@! TD*
G04 #@! TA.AperFunction,ComponentPad*
%ADD13C,1.600000*%
G04 #@! TD*
G04 #@! TA.AperFunction,SMDPad,CuDef*
%ADD14R,0.900000X0.800000*%
G04 #@! TD*
G04 #@! TA.AperFunction,ViaPad*
%ADD15C,0.800000*%
G04 #@! TD*
G04 #@! TA.AperFunction,Conductor*
%ADD16C,0.250000*%
G04 #@! TD*
G04 APERTURE END LIST*
D10*
G04 #@! TO.P,U1,1*
G04 #@! TO.N,Net-(U1-Pad1)*
X149377400Y-89860100D03*
G04 #@! TO.P,U1,2*
G04 #@! TO.N,Net-(U1-Pad2)*
X148107400Y-89860100D03*
G04 #@! TO.P,U1,3*
G04 #@! TO.N,Net-(U1-Pad3)*
X146837400Y-89860100D03*
G04 #@! TO.P,U1,4*
G04 #@! TO.N,Net-(D1-Pad1)*
X145567400Y-89860100D03*
G04 #@! TO.P,U1,5*
G04 #@! TO.N,Net-(U1-Pad5)*
X145567400Y-97160100D03*
G04 #@! TO.P,U1,6*
G04 #@! TO.N,Net-(U1-Pad6)*
X146837400Y-97160100D03*
G04 #@! TO.P,U1,7*
G04 #@! TO.N,Net-(U1-Pad7)*
X148107400Y-97160100D03*
G04 #@! TO.P,U1,8*
G04 #@! TO.N,Net-(U1-Pad8)*
X149377400Y-97160100D03*
G04 #@! TD*
D11*
G04 #@! TO.N,Net-(U1-Pad8)*
G04 #@! TO.C,U3*
G36*
X154685787Y-86638886D02*
X154724616Y-86644646D01*
X154762694Y-86654184D01*
X154799653Y-86667408D01*
X154835139Y-86684191D01*
X154868808Y-86704372D01*
X154900337Y-86727756D01*
X154929423Y-86754117D01*
X154955784Y-86783203D01*
X154979168Y-86814732D01*
X154999349Y-86848401D01*
X155016132Y-86883887D01*
X155029356Y-86920846D01*
X155038894Y-86958924D01*
X155044654Y-86997753D01*
X155046580Y-87036960D01*
X155046580Y-87836960D01*
X155044654Y-87876167D01*
X155038894Y-87914996D01*
X155029356Y-87953074D01*
X155016132Y-87990033D01*
X154999349Y-88025519D01*
X154979168Y-88059188D01*
X154955784Y-88090717D01*
X154929423Y-88119803D01*
X154900337Y-88146164D01*
X154868808Y-88169548D01*
X154835139Y-88189729D01*
X154799653Y-88206512D01*
X154762694Y-88219736D01*
X154724616Y-88229274D01*
X154685787Y-88235034D01*
X154646580Y-88236960D01*
X153846580Y-88236960D01*
X153807373Y-88235034D01*
X153768544Y-88229274D01*
X153730466Y-88219736D01*
X153693507Y-88206512D01*
X153658021Y-88189729D01*
X153624352Y-88169548D01*
X153592823Y-88146164D01*
X153563737Y-88119803D01*
X153537376Y-88090717D01*
X153513992Y-88059188D01*
X153493811Y-88025519D01*
X153477028Y-87990033D01*
X153463804Y-87953074D01*
X153454266Y-87914996D01*
X153448506Y-87876167D01*
X153446580Y-87836960D01*
X153446580Y-87036960D01*
X153448506Y-86997753D01*
X153454266Y-86958924D01*
X153463804Y-86920846D01*
X153477028Y-86883887D01*
X153493811Y-86848401D01*
X153513992Y-86814732D01*
X153537376Y-86783203D01*
X153563737Y-86754117D01*
X153592823Y-86727756D01*
X153624352Y-86704372D01*
X153658021Y-86684191D01*
X153693507Y-86667408D01*
X153730466Y-86654184D01*
X153768544Y-86644646D01*
X153807373Y-86638886D01*
X153846580Y-86636960D01*
X154646580Y-86636960D01*
X154685787Y-86638886D01*
X154685787Y-86638886D01*
G37*
D12*
G04 #@! TD*
G04 #@! TO.P,U3,1*
G04 #@! TO.N,Net-(U1-Pad8)*
X154246580Y-87436960D03*
D11*
G04 #@! TO.N,Net-(D1-Pad1)*
G04 #@! TO.C,U4*
G36*
X145892307Y-86628726D02*
X145931136Y-86634486D01*
X145969214Y-86644024D01*
X146006173Y-86657248D01*
X146041659Y-86674031D01*
X146075328Y-86694212D01*
X146106857Y-86717596D01*
X146135943Y-86743957D01*
X146162304Y-86773043D01*
X146185688Y-86804572D01*
X146205869Y-86838241D01*
X146222652Y-86873727D01*
X146235876Y-86910686D01*
X146245414Y-86948764D01*
X146251174Y-86987593D01*
X146253100Y-87026800D01*
X146253100Y-87826800D01*
X146251174Y-87866007D01*
X146245414Y-87904836D01*
X146235876Y-87942914D01*
X146222652Y-87979873D01*
X146205869Y-88015359D01*
X146185688Y-88049028D01*
X146162304Y-88080557D01*
X146135943Y-88109643D01*
X146106857Y-88136004D01*
X146075328Y-88159388D01*
X146041659Y-88179569D01*
X146006173Y-88196352D01*
X145969214Y-88209576D01*
X145931136Y-88219114D01*
X145892307Y-88224874D01*
X145853100Y-88226800D01*
X145053100Y-88226800D01*
X145013893Y-88224874D01*
X144975064Y-88219114D01*
X144936986Y-88209576D01*
X144900027Y-88196352D01*
X144864541Y-88179569D01*
X144830872Y-88159388D01*
X144799343Y-88136004D01*
X144770257Y-88109643D01*
X144743896Y-88080557D01*
X144720512Y-88049028D01*
X144700331Y-88015359D01*
X144683548Y-87979873D01*
X144670324Y-87942914D01*
X144660786Y-87904836D01*
X144655026Y-87866007D01*
X144653100Y-87826800D01*
X144653100Y-87026800D01*
X144655026Y-86987593D01*
X144660786Y-86948764D01*
X144670324Y-86910686D01*
X144683548Y-86873727D01*
X144700331Y-86838241D01*
X144720512Y-86804572D01*
X144743896Y-86773043D01*
X144770257Y-86743957D01*
X144799343Y-86717596D01*
X144830872Y-86694212D01*
X144864541Y-86674031D01*
X144900027Y-86657248D01*
X144936986Y-86644024D01*
X144975064Y-86634486D01*
X145013893Y-86628726D01*
X145053100Y-86626800D01*
X145853100Y-86626800D01*
X145892307Y-86628726D01*
X145892307Y-86628726D01*
G37*
D12*
G04 #@! TD*
G04 #@! TO.P,U4,1*
G04 #@! TO.N,Net-(D1-Pad1)*
X145453100Y-87426800D03*
D13*
G04 #@! TO.P,D1,2*
G04 #@! TO.N,Net-(D1-Pad2)*
X151239220Y-99301300D03*
G04 #@! TO.P,D1,1*
G04 #@! TO.N,Net-(D1-Pad1)*
X148704300Y-99301300D03*
G04 #@! TD*
D14*
G04 #@! TO.P,U2,2*
G04 #@! TO.N,Net-(U1-Pad5)*
X151984200Y-91290100D03*
G04 #@! TO.P,U2,1*
G04 #@! TO.N,Net-(D1-Pad2)*
X151984200Y-93190100D03*
G04 #@! TO.P,U2,3*
G04 #@! TO.N,Net-(U1-Pad8)*
X153984200Y-92240100D03*
G04 #@! TD*
D15*
G04 #@! TO.N,Net-(U1-Pad8)*
X150507700Y-91782900D03*
X149428200Y-94996000D03*
G04 #@! TD*
D16*
G04 #@! TO.N,Net-(U1-Pad5)*
X145567400Y-96060100D02*
X148854000Y-92773500D01*
X145567400Y-97160100D02*
X145567400Y-96060100D01*
X151934200Y-91290100D02*
X151984200Y-91290100D01*
X151284200Y-91940100D02*
X151934200Y-91290100D01*
X151284200Y-92455098D02*
X151284200Y-91940100D01*
X150965798Y-92773500D02*
X151284200Y-92455098D01*
X148854000Y-92773500D02*
X150965798Y-92773500D01*
G04 #@! TO.N,Net-(U1-Pad8)*
X154246580Y-87436960D02*
X152859740Y-88823800D01*
X152859740Y-88823800D02*
X151993600Y-88823800D01*
X150507700Y-90309700D02*
X150507700Y-91782900D01*
X151993600Y-88823800D02*
X150507700Y-90309700D01*
X149428200Y-97109300D02*
X149377400Y-97160100D01*
X149428200Y-94996000D02*
X149428200Y-97109300D01*
X153984200Y-87699340D02*
X154246580Y-87436960D01*
X153984200Y-92240100D02*
X153984200Y-87699340D01*
G04 #@! TO.N,Net-(D1-Pad2)*
X151984200Y-98556320D02*
X151239220Y-99301300D01*
X151984200Y-93190100D02*
X151984200Y-98556320D01*
G04 #@! TO.N,Net-(D1-Pad1)*
X145453100Y-89745800D02*
X145567400Y-89860100D01*
X145453100Y-87426800D02*
X145453100Y-89745800D01*
X145567400Y-89860100D02*
X145567400Y-94811810D01*
X147572930Y-99301300D02*
X148704300Y-99301300D01*
X145948598Y-99301300D02*
X147572930Y-99301300D01*
X144917399Y-98270101D02*
X145948598Y-99301300D01*
X144917399Y-95461811D02*
X144917399Y-98270101D01*
X145567400Y-94811810D02*
X144917399Y-95461811D01*
G04 #@! TD*
M02*
