G04 #@! TF.GenerationSoftware,KiCad,Pcbnew,5.0.2+dfsg1-1~bpo9+1*
G04 #@! TF.CreationDate,2020-10-06T20:20:49+01:00*
G04 #@! TF.ProjectId,tiny_usb_charger,74696e79-5f75-4736-925f-636861726765,rev?*
G04 #@! TF.SameCoordinates,Original*
G04 #@! TF.FileFunction,Legend,Bot*
G04 #@! TF.FilePolarity,Positive*
%FSLAX46Y46*%
G04 Gerber Fmt 4.6, Leading zero omitted, Abs format (unit mm)*
G04 Created by KiCad (PCBNEW 5.0.2+dfsg1-1~bpo9+1) date Tue 06 Oct 2020 20:20:49 BST*
%MOMM*%
%LPD*%
G01*
G04 APERTURE LIST*
%ADD10C,0.250000*%
%ADD11C,0.300000*%
G04 APERTURE END LIST*
D10*
X151680871Y-86974942D02*
X151680871Y-86641609D01*
X152204680Y-86641609D02*
X151204680Y-86641609D01*
X151204680Y-87117800D01*
X152204680Y-87927323D02*
X151680871Y-87927323D01*
X151585633Y-87879704D01*
X151538014Y-87784466D01*
X151538014Y-87593990D01*
X151585633Y-87498752D01*
X152157061Y-87927323D02*
X152204680Y-87832085D01*
X152204680Y-87593990D01*
X152157061Y-87498752D01*
X152061823Y-87451133D01*
X151966585Y-87451133D01*
X151871347Y-87498752D01*
X151823728Y-87593990D01*
X151823728Y-87832085D01*
X151776109Y-87927323D01*
X152157061Y-88832085D02*
X152204680Y-88736847D01*
X152204680Y-88546371D01*
X152157061Y-88451133D01*
X152109442Y-88403514D01*
X152014204Y-88355895D01*
X151728490Y-88355895D01*
X151633252Y-88403514D01*
X151585633Y-88451133D01*
X151538014Y-88546371D01*
X151538014Y-88736847D01*
X151585633Y-88832085D01*
X152157061Y-89641609D02*
X152204680Y-89546371D01*
X152204680Y-89355895D01*
X152157061Y-89260657D01*
X152061823Y-89213038D01*
X151680871Y-89213038D01*
X151585633Y-89260657D01*
X151538014Y-89355895D01*
X151538014Y-89546371D01*
X151585633Y-89641609D01*
X151680871Y-89689228D01*
X151776109Y-89689228D01*
X151871347Y-89213038D01*
X152204680Y-90260657D02*
X152157061Y-90165419D01*
X152061823Y-90117800D01*
X151204680Y-90117800D01*
X152157061Y-91022561D02*
X152204680Y-90927323D01*
X152204680Y-90736847D01*
X152157061Y-90641609D01*
X152061823Y-90593990D01*
X151680871Y-90593990D01*
X151585633Y-90641609D01*
X151538014Y-90736847D01*
X151538014Y-90927323D01*
X151585633Y-91022561D01*
X151680871Y-91070180D01*
X151776109Y-91070180D01*
X151871347Y-90593990D01*
X152157061Y-91451133D02*
X152204680Y-91546371D01*
X152204680Y-91736847D01*
X152157061Y-91832085D01*
X152061823Y-91879704D01*
X152014204Y-91879704D01*
X151918966Y-91832085D01*
X151871347Y-91736847D01*
X151871347Y-91593990D01*
X151823728Y-91498752D01*
X151728490Y-91451133D01*
X151680871Y-91451133D01*
X151585633Y-91498752D01*
X151538014Y-91593990D01*
X151538014Y-91736847D01*
X151585633Y-91832085D01*
X152157061Y-92260657D02*
X152204680Y-92355895D01*
X152204680Y-92546371D01*
X152157061Y-92641609D01*
X152061823Y-92689228D01*
X152014204Y-92689228D01*
X151918966Y-92641609D01*
X151871347Y-92546371D01*
X151871347Y-92403514D01*
X151823728Y-92308276D01*
X151728490Y-92260657D01*
X151680871Y-92260657D01*
X151585633Y-92308276D01*
X151538014Y-92403514D01*
X151538014Y-92546371D01*
X151585633Y-92641609D01*
X151538014Y-92974942D02*
X151538014Y-93355895D01*
X151204680Y-93117800D02*
X152061823Y-93117800D01*
X152157061Y-93165419D01*
X152204680Y-93260657D01*
X152204680Y-93355895D01*
X152157061Y-94070180D02*
X152204680Y-93974942D01*
X152204680Y-93784466D01*
X152157061Y-93689228D01*
X152061823Y-93641609D01*
X151680871Y-93641609D01*
X151585633Y-93689228D01*
X151538014Y-93784466D01*
X151538014Y-93974942D01*
X151585633Y-94070180D01*
X151680871Y-94117800D01*
X151776109Y-94117800D01*
X151871347Y-93641609D01*
X152157061Y-94974942D02*
X152204680Y-94879704D01*
X152204680Y-94689228D01*
X152157061Y-94593990D01*
X152109442Y-94546371D01*
X152014204Y-94498752D01*
X151728490Y-94498752D01*
X151633252Y-94546371D01*
X151585633Y-94593990D01*
X151538014Y-94689228D01*
X151538014Y-94879704D01*
X151585633Y-94974942D01*
X152204680Y-95403514D02*
X151204680Y-95403514D01*
X152204680Y-95832085D02*
X151680871Y-95832085D01*
X151585633Y-95784466D01*
X151538014Y-95689228D01*
X151538014Y-95546371D01*
X151585633Y-95451133D01*
X151633252Y-95403514D01*
D11*
X145419071Y-89353000D02*
X146633357Y-89353000D01*
X146776214Y-89424428D01*
X146847642Y-89495857D01*
X146919071Y-89638714D01*
X146919071Y-89924428D01*
X146847642Y-90067285D01*
X146776214Y-90138714D01*
X146633357Y-90210142D01*
X145419071Y-90210142D01*
X146847642Y-90853000D02*
X146919071Y-91067285D01*
X146919071Y-91424428D01*
X146847642Y-91567285D01*
X146776214Y-91638714D01*
X146633357Y-91710142D01*
X146490500Y-91710142D01*
X146347642Y-91638714D01*
X146276214Y-91567285D01*
X146204785Y-91424428D01*
X146133357Y-91138714D01*
X146061928Y-90995857D01*
X145990500Y-90924428D01*
X145847642Y-90853000D01*
X145704785Y-90853000D01*
X145561928Y-90924428D01*
X145490500Y-90995857D01*
X145419071Y-91138714D01*
X145419071Y-91495857D01*
X145490500Y-91710142D01*
X146133357Y-92853000D02*
X146204785Y-93067285D01*
X146276214Y-93138714D01*
X146419071Y-93210142D01*
X146633357Y-93210142D01*
X146776214Y-93138714D01*
X146847642Y-93067285D01*
X146919071Y-92924428D01*
X146919071Y-92353000D01*
X145419071Y-92353000D01*
X145419071Y-92853000D01*
X145490500Y-92995857D01*
X145561928Y-93067285D01*
X145704785Y-93138714D01*
X145847642Y-93138714D01*
X145990500Y-93067285D01*
X146061928Y-92995857D01*
X146133357Y-92853000D01*
X146133357Y-92353000D01*
X147061928Y-93495857D02*
X147061928Y-94638714D01*
X146919071Y-95710142D02*
X146919071Y-94995857D01*
X145419071Y-94995857D01*
X146133357Y-96210142D02*
X146133357Y-96710142D01*
X146919071Y-96924428D02*
X146919071Y-96210142D01*
X145419071Y-96210142D01*
X145419071Y-96924428D01*
X146919071Y-97567285D02*
X145419071Y-97567285D01*
X145419071Y-97924428D01*
X145490500Y-98138714D01*
X145633357Y-98281571D01*
X145776214Y-98353000D01*
X146061928Y-98424428D01*
X146276214Y-98424428D01*
X146561928Y-98353000D01*
X146704785Y-98281571D01*
X146847642Y-98138714D01*
X146919071Y-97924428D01*
X146919071Y-97567285D01*
M02*
