G04 #@! TF.GenerationSoftware,KiCad,Pcbnew,5.0.2+dfsg1-1~bpo9+1*
G04 #@! TF.CreationDate,2020-10-06T20:20:49+01:00*
G04 #@! TF.ProjectId,tiny_usb_charger,74696e79-5f75-4736-925f-636861726765,rev?*
G04 #@! TF.SameCoordinates,Original*
G04 #@! TF.FileFunction,Soldermask,Top*
G04 #@! TF.FilePolarity,Negative*
%FSLAX46Y46*%
G04 Gerber Fmt 4.6, Leading zero omitted, Abs format (unit mm)*
G04 Created by KiCad (PCBNEW 5.0.2+dfsg1-1~bpo9+1) date Tue 06 Oct 2020 20:20:49 BST*
%MOMM*%
%LPD*%
G01*
G04 APERTURE LIST*
%ADD10C,0.100000*%
G04 APERTURE END LIST*
D10*
G36*
X148952528Y-98483003D02*
X149107400Y-98547153D01*
X149246781Y-98640285D01*
X149365315Y-98758819D01*
X149458447Y-98898200D01*
X149522597Y-99053072D01*
X149555300Y-99217484D01*
X149555300Y-99385116D01*
X149522597Y-99549528D01*
X149458447Y-99704400D01*
X149365315Y-99843781D01*
X149246781Y-99962315D01*
X149107400Y-100055447D01*
X148952528Y-100119597D01*
X148788116Y-100152300D01*
X148620484Y-100152300D01*
X148456072Y-100119597D01*
X148301200Y-100055447D01*
X148161819Y-99962315D01*
X148043285Y-99843781D01*
X147950153Y-99704400D01*
X147886003Y-99549528D01*
X147853300Y-99385116D01*
X147853300Y-99217484D01*
X147886003Y-99053072D01*
X147950153Y-98898200D01*
X148043285Y-98758819D01*
X148161819Y-98640285D01*
X148301200Y-98547153D01*
X148456072Y-98483003D01*
X148620484Y-98450300D01*
X148788116Y-98450300D01*
X148952528Y-98483003D01*
X148952528Y-98483003D01*
G37*
G36*
X151487448Y-98483003D02*
X151642320Y-98547153D01*
X151781701Y-98640285D01*
X151900235Y-98758819D01*
X151993367Y-98898200D01*
X152057517Y-99053072D01*
X152090220Y-99217484D01*
X152090220Y-99385116D01*
X152057517Y-99549528D01*
X151993367Y-99704400D01*
X151900235Y-99843781D01*
X151781701Y-99962315D01*
X151642320Y-100055447D01*
X151487448Y-100119597D01*
X151323036Y-100152300D01*
X151155404Y-100152300D01*
X150990992Y-100119597D01*
X150836120Y-100055447D01*
X150696739Y-99962315D01*
X150578205Y-99843781D01*
X150485073Y-99704400D01*
X150420923Y-99549528D01*
X150388220Y-99385116D01*
X150388220Y-99217484D01*
X150420923Y-99053072D01*
X150485073Y-98898200D01*
X150578205Y-98758819D01*
X150696739Y-98640285D01*
X150836120Y-98547153D01*
X150990992Y-98483003D01*
X151155404Y-98450300D01*
X151323036Y-98450300D01*
X151487448Y-98483003D01*
X151487448Y-98483003D01*
G37*
G36*
X149753400Y-98061100D02*
X149001400Y-98061100D01*
X149001400Y-96259100D01*
X149753400Y-96259100D01*
X149753400Y-98061100D01*
X149753400Y-98061100D01*
G37*
G36*
X148483400Y-98061100D02*
X147731400Y-98061100D01*
X147731400Y-96259100D01*
X148483400Y-96259100D01*
X148483400Y-98061100D01*
X148483400Y-98061100D01*
G37*
G36*
X147213400Y-98061100D02*
X146461400Y-98061100D01*
X146461400Y-96259100D01*
X147213400Y-96259100D01*
X147213400Y-98061100D01*
X147213400Y-98061100D01*
G37*
G36*
X145943400Y-98061100D02*
X145191400Y-98061100D01*
X145191400Y-96259100D01*
X145943400Y-96259100D01*
X145943400Y-98061100D01*
X145943400Y-98061100D01*
G37*
G36*
X152485200Y-93641100D02*
X151483200Y-93641100D01*
X151483200Y-92739100D01*
X152485200Y-92739100D01*
X152485200Y-93641100D01*
X152485200Y-93641100D01*
G37*
G36*
X154485200Y-92691100D02*
X153483200Y-92691100D01*
X153483200Y-91789100D01*
X154485200Y-91789100D01*
X154485200Y-92691100D01*
X154485200Y-92691100D01*
G37*
G36*
X152485200Y-91741100D02*
X151483200Y-91741100D01*
X151483200Y-90839100D01*
X152485200Y-90839100D01*
X152485200Y-91741100D01*
X152485200Y-91741100D01*
G37*
G36*
X149753400Y-90761100D02*
X149001400Y-90761100D01*
X149001400Y-88959100D01*
X149753400Y-88959100D01*
X149753400Y-90761100D01*
X149753400Y-90761100D01*
G37*
G36*
X148483400Y-90761100D02*
X147731400Y-90761100D01*
X147731400Y-88959100D01*
X148483400Y-88959100D01*
X148483400Y-90761100D01*
X148483400Y-90761100D01*
G37*
G36*
X147213400Y-90761100D02*
X146461400Y-90761100D01*
X146461400Y-88959100D01*
X147213400Y-88959100D01*
X147213400Y-90761100D01*
X147213400Y-90761100D01*
G37*
G36*
X145943400Y-90761100D02*
X145191400Y-90761100D01*
X145191400Y-88959100D01*
X145943400Y-88959100D01*
X145943400Y-90761100D01*
X145943400Y-90761100D01*
G37*
G36*
X154805278Y-86593528D02*
X154873264Y-86614151D01*
X154935917Y-86647640D01*
X154990832Y-86692708D01*
X155035900Y-86747623D01*
X155069389Y-86810276D01*
X155090012Y-86878262D01*
X155097580Y-86955100D01*
X155097580Y-87918820D01*
X155090012Y-87995658D01*
X155069389Y-88063644D01*
X155035900Y-88126297D01*
X154990832Y-88181212D01*
X154935917Y-88226280D01*
X154873264Y-88259769D01*
X154805278Y-88280392D01*
X154728440Y-88287960D01*
X153764720Y-88287960D01*
X153687882Y-88280392D01*
X153619896Y-88259769D01*
X153557243Y-88226280D01*
X153502328Y-88181212D01*
X153457260Y-88126297D01*
X153423771Y-88063644D01*
X153403148Y-87995658D01*
X153395580Y-87918820D01*
X153395580Y-86955100D01*
X153403148Y-86878262D01*
X153423771Y-86810276D01*
X153457260Y-86747623D01*
X153502328Y-86692708D01*
X153557243Y-86647640D01*
X153619896Y-86614151D01*
X153687882Y-86593528D01*
X153764720Y-86585960D01*
X154728440Y-86585960D01*
X154805278Y-86593528D01*
X154805278Y-86593528D01*
G37*
G36*
X146011798Y-86583368D02*
X146079784Y-86603991D01*
X146142437Y-86637480D01*
X146197352Y-86682548D01*
X146242420Y-86737463D01*
X146275909Y-86800116D01*
X146296532Y-86868102D01*
X146304100Y-86944940D01*
X146304100Y-87908660D01*
X146296532Y-87985498D01*
X146275909Y-88053484D01*
X146242420Y-88116137D01*
X146197352Y-88171052D01*
X146142437Y-88216120D01*
X146079784Y-88249609D01*
X146011798Y-88270232D01*
X145934960Y-88277800D01*
X144971240Y-88277800D01*
X144894402Y-88270232D01*
X144826416Y-88249609D01*
X144763763Y-88216120D01*
X144708848Y-88171052D01*
X144663780Y-88116137D01*
X144630291Y-88053484D01*
X144609668Y-87985498D01*
X144602100Y-87908660D01*
X144602100Y-86944940D01*
X144609668Y-86868102D01*
X144630291Y-86800116D01*
X144663780Y-86737463D01*
X144708848Y-86682548D01*
X144763763Y-86637480D01*
X144826416Y-86603991D01*
X144894402Y-86583368D01*
X144971240Y-86575800D01*
X145934960Y-86575800D01*
X146011798Y-86583368D01*
X146011798Y-86583368D01*
G37*
M02*
